<?xml version="1.0" encoding="utf-8"?>
<!-- Generator: Adobe Illustrator 19.2.1, SVG Export Plug-In . SVG Version: 6.00 Build 0)  -->
<svg version="1.1" id="Layer_1" xmlns="http://www.w3.org/2000/svg" xmlns:xlink="http://www.w3.org/1999/xlink" x="0px" y="0px"
	 viewBox="0 0 792 612" style="enable-background:new 0 0 792 612;" xml:space="preserve">
<g>
	<path d="M395.8,181.2c-17.5,0-31.7,14.2-31.7,31.7c0,13.2,8.4,25,21.4,30c4.9,1.9,8,7.9,10.1,11.9c0.1,0.3,0.3,0.5,0.4,0.8
		c0.2-0.5,0.5-1,0.7-1.5c1.8-3.9,4.2-9.2,9.5-11.2c12.9-4.9,21.3-16.7,21.3-29.9C427.5,195.4,413.3,181.2,395.8,181.2z M395.6,229.6
		c-9.2,0-16.7-7.5-16.7-16.7s7.5-16.7,16.7-16.7c9.2,0,16.7,7.5,16.7,16.7S404.8,229.6,395.6,229.6z"/>
	<path d="M395.8,141.3c-39.5,0-71.5,32.1-71.5,71.5c0,29.9,18.8,56.8,46.8,67.2c1.9,0.7,2.5,2.8,3.4,6.1c0.2,0.8,0.6,2.1,0.9,2.9
		c0,0,0.1,0,0.1,0c0.8-0.2,1.7-0.3,2.6-0.3c0.5,0,0.9,0,1.3,0.1c4.5,1.1,8.1,7.9,12.2,16.7c0.4,0.9,0.9,1.8,1.3,2.7
		c0.2-0.5,0.4-0.9,0.6-1.4c2.7-6,5.8-12.9,10.9-12.9c1.3,0,2.5,0.4,3.6,1.3c0.6-1.2,1.2-2.7,1.7-3.9c2.9-6.8,4.1-9.3,6.3-9.9
		c30.3-8.9,51.4-37.1,51.4-68.7C467.3,173.4,435.3,141.3,395.8,141.3z M416.5,267.1c-1.6,0.8-5.3,6.8-6.5,8.7
		c-1,1.7-1.3,2.2-1.7,2.5c-0.6,0.6-1.4,0.9-2.2,0.9c-1.9,0-2.9-1.6-3.7-2.9c-0.3-0.5-1.1-1.7-1.5-2.1c-1.1,1.1-2.5,5.6-3.2,7.8
		c-1.5,4.6-2.4,7.4-5.1,7.4c-2.2,0-3.1-1.7-5.7-6.9c-2.6-5.2-7-13.8-10.9-15.6c-23.9-10.7-38.1-30.9-38.1-54.1c0-32,26-58,58-58
		c32,0,58,26,58,58C453.8,235.2,440.2,255,416.5,267.1z"/>
	<path d="M429.2,318.7c22-6.6,41.8-20.6,55.7-39.4c14.3-19.3,21.9-42.3,21.9-66.4c0-61.2-49.8-110.9-110.9-110.9
		c-61.2,0-110.9,49.8-110.9,110.9c0,42.8,26.2,81,70.1,102.4c4.4,2.1,6.9,10.2,10.3,22.2c1,3.5,2.2,7.9,3.3,10.5
		c0-0.1,0-0.1,0.1-0.2c0.8-2.4,2-3.5,3.1-3.8c0.4-0.1,0.8-0.2,1.2-0.2c0.6,0,1.1,0.1,1.7,0.4c1.7,0.8,3.3,2.8,5.3,6.4
		c0.6,1.1,1.2,2.4,1.9,3.8c0.5,1.1,1.1,2.4,1.7,3.7c0.8,1.8,1.6,3.7,2.6,5.9c2.1,4.8,5,11.6,6.8,14.3c1.6-2.5,4-8.5,5.6-12.4
		c1.2-3,2.2-5.4,3.1-7.3c0.7-1.5,1.3-2.7,1.8-3.6c1-1.7,1.9-2.6,3-2.9c0.3-0.1,0.5-0.2,0.8-0.2l0.3,0c0.5,0,0.9,0.1,1.4,0.2
		c1,0.4,1.9,1.2,2.5,2.2c0.5,0.8,1,1.6,1.4,2.5c0.2-0.8,0.5-1.8,0.7-2.7c0.3-1.2,0.6-2.4,0.8-3.5c0-0.1,0-0.1,0.1-0.2
		C418.1,334.3,421.8,320.9,429.2,318.7z M417.4,318.7c-2.2,6.9-3.1,9.8-5.9,9.8c-2,0-3.4-1.5-4.7-2.9c-0.4-0.4-1.1-1.2-1.7-1.7
		c-1.2,2.4-3.2,8.5-4.5,12.7c-3.8,11.8-4.8,14.6-7.7,14.6c-2.7,0-3.2-2.2-5.3-10.3c-1.2-4.8-2.8-10.8-4.6-15.5
		c-2.6-6.5-4.2-6.8-4.2-6.8c-0.1,0-0.6,0.2-1.4,1.2c-0.5,0.7-1.3,1-2.2,1c0,0,0,0,0,0c-2.3,0-3.1-1.8-6.2-8.6
		c-1.2-2.6-3.1-6.9-4.1-8.2c-39.1-13.2-65.3-49.8-65.3-91.1c0-53,43.1-96.1,96.1-96.1c53,0,96.1,43.1,96.1,96.1
		c0,20.9-6.8,40.8-19.6,57.5c-12.3,16-29.2,28-48.9,34.6C421.5,305.9,418.7,314.9,417.4,318.7z"/>
	<path d="M486.6,212.9c0-50.1-40.7-90.8-90.8-90.8c-50.1,0-90.8,40.7-90.8,90.8c0,39.2,25,73.8,62.1,86.2c1.9,0.6,3.1,2.8,6.8,10.9
		c0.6,1.3,1.3,2.9,1.9,4.1c1-0.6,2-0.8,3-0.8c6.7,0,10.2,11.4,14,26.3c0.2,0.7,0.4,1.4,0.6,2.2c0.7-2.1,1.5-4.6,2.2-6.8
		c4.3-13.6,5.7-16.8,8.8-16.8c2.9,0,4.9,2.2,6.4,3.8c0.5-1.4,1.1-3.3,1.6-4.8c3-9.5,5.3-15.8,9.3-17.1c18.7-6.3,34.7-17.6,46.4-32.8
		C480.2,251.4,486.6,232.6,486.6,212.9z M417.9,286.5c-0.8,1.1-2.4,4.8-3.4,7c-2.7,6.3-3.7,8.7-6.3,8.7c-1,0-1.9-0.5-2.5-1.4
		c-0.8-1.2-1.3-1.5-1.5-1.5c-1.7,0.2-4.9,7.4-6,9.7c-2,4.5-3,6.7-5.4,6.7c-2.4,0-3.3-2-6.2-8c-1.9-4-6.3-13.3-8.7-13.9
		c-0.3,0-0.9,0.1-1.5,0.3c-0.8,0.2-1.5,0.3-2.3,0.3c-2.9,0-3.8-3.2-4.9-6.9c-0.3-0.9-0.6-2.1-0.9-2.8
		c-29.7-11.3-49.6-40.1-49.6-71.9c0-42.4,34.5-76.9,76.9-76.9c42.4,0,76.9,34.5,76.9,76.9C472.7,246.7,450.2,276.9,417.9,286.5z"/>
	<path d="M395.8,160.2c-29,0-52.7,23.6-52.7,52.7c0,21,13.1,39.4,35,49.2c5.6,2.5,10.1,11.5,13.4,18c0.2,0.4,0.4,0.9,0.7,1.3
		c0.1-0.3,0.2-0.7,0.3-1c1.8-5.7,3.7-11.6,8.2-11.6c2.5,0,4.2,1.7,5.3,3.3c2.8-4.5,5.5-8.5,8.1-9.9c21.9-11.2,34.4-29.2,34.4-49.4
		C448.5,183.8,424.8,160.2,395.8,160.2z M408.1,247.8c-3.2,1.2-5.1,5.2-6.5,8.5c-1.4,3.2-2.8,6.1-5.8,6.1c-2.2,0-3.3-2-4.9-5.2
		c-1.7-3.3-4.2-8.2-7.3-9.4c-15.1-5.8-24.8-19.5-24.8-34.9c0-20.4,16.6-37,37-37c20.4,0,37,16.6,37,37
		C432.8,228.4,423.1,242.1,408.1,247.8z"/>
	<path d="M346.3,349.8c0.4,1.1,0.8,2.2,1.2,3.2c4.7,11.5,12.2,15,17.8,15.9c0.1,0.2,0.2,0.5,0.3,0.7c1.9,4.4,3.9,9,5.8,12.7
		c2,3.9,8.2,15.8,21.5,15.8c3.9,0,11.4-1.2,17.4-9.1c1.4-1.8,2.6-3.9,3.9-6.5c0.7-1.4,1.4-2.9,2-4.5c6.4-0.9,12-4.9,15.3-11
		c0.8-1.5,1.5-3.1,2.1-5.2c0.7-2.3,1.4-5,2.2-8.1c0.1-0.2,0.1-0.5,0.2-0.7c60.3-17.4,104.6-73.1,104.6-139
		c0-79.8-64.9-144.7-144.7-144.7c-79.8,0-144.7,64.9-144.7,144.7C251.3,276.2,290.9,329.4,346.3,349.8z M418.2,356.9
		c-1.4,5.6-2.4,7.4-4.8,7.4c-2.7,0-4.1-2.7-5.4-5.1c-0.2-0.3-0.3-0.7-0.5-1c-1.2,2.3-2.9,6.5-4.1,9.5c-4.8,11.9-7,16.5-10.5,16.5
		c-3.6,0-5.8-4.5-11.7-18.2c-1.1-2.5-2.5-5.7-3.8-8.6c-0.6-1.4-1.3-2.7-1.9-3.8c-0.7-1.4-1.4-2.5-1.9-3.3c-0.3,0.9-0.7,1.9-1.3,2.8
		c-0.8,1.2-1.9,2.1-3.4,2.1c0,0,0,0,0,0c-1.8,0-3.2-1.2-4.4-3.6c-0.5-1.1-1.1-2.4-1.6-4.1c-0.8-2.3-1.6-5.1-2.5-8.5
		c-1.7-6.2-5-17.6-7.5-18.8c-45.8-22.3-73.1-62.3-73.1-107.2c0-64.1,52.1-116.2,116.2-116.2c64.1,0,116.2,52.1,116.2,116.2
		c0,25.3-7.9,49.4-22.9,69.6c-14.6,19.7-35.3,34.3-58.4,41.3c-4.6,1.4-8.5,16.5-10.7,25.6c-0.2,0.8-0.4,1.6-0.6,2.3
		c-0.1,0.5-0.2,1-0.3,1.4C418.7,354.5,418.4,355.8,418.2,356.9z"/>
	<path d="M463.9,522.2v-0.2c0-1.2-0.9-2.1-3.4-2.1h-4.8v4.4h4.9C462.9,524.4,463.9,523.5,463.9,522.2z"/>
	<path d="M539.5,525.1v-0.4c0-2.7-2-4.8-5.4-4.8h-4.5V530h4.5C537.5,530,539.5,527.9,539.5,525.1z"/>
	<path d="M385.3,530.5c3.4,0,5.4-2.5,5.4-5.3v-0.5c0-2.8-1.9-5.3-5.4-5.3c-3.5,0-5.4,2.5-5.4,5.3v0.5
		C379.9,528,381.8,530.5,385.3,530.5z"/>
	<path d="M128.8,542.9h530.6v-36.8H128.8V542.9z M598.3,521.3c0-3.3,4.2-5.9,10-5.9c4.2,0,7.1,1.1,9.8,2.4l-2,3.2
		c-2.3-1.2-5.4-2-8-2c-2.9,0-4.4,0.9-4.4,1.9c0,3.2,14.6,0.9,14.6,7.5c0,3.7-4.4,6-10,6c-4.2,0-8-1-10.8-2.4l1.7-3.4
		c2.8,1.3,6.2,2.2,9,2.2c3.4,0,4.6-1,4.6-1.9C612.7,525.7,598.3,528,598.3,521.3z M524,516.1h10.4c6.6,0,10.9,3.9,10.9,8.7v0.4
		c0,4.7-4.3,8.7-10.9,8.7H524V516.1z M450.1,516.1H462c5.1,0,7.6,2.2,7.6,5v0.1c0,1.8-1.3,3.5-4.3,4.1c3.3,0.3,4.3,2,4.3,4.1l0,1.5
		c0,1.2,0.2,2.1,1,2.9v0.1h-5.1c-1,0-1.5-1.2-1.6-2.8l-0.1-1.9c-0.1-1.4-0.6-2.2-3-2.2h-5.1v6.8h-5.7V516.1z M374.1,524.7
		c0-5,4.4-9.3,11.1-9.3c6.7,0,11.1,4.3,11.1,9.3v0.4c0,5-4.4,9.3-11.1,9.3c-6.7,0-11.1-4.4-11.1-9.3V524.7z M300.7,524.8
		c0-5.1,4.7-9.4,11.6-9.4c4.1,0,7.7,1.4,9.6,3.4l-2.8,3.1c-1.5-1.4-3.7-2.4-6.4-2.4c-3.8,0-6.2,2.4-6.2,5.3v0.2
		c0,2.9,2.3,5.2,6.3,5.2c2.6,0,5-1.2,6.4-2.4l2.6,3.2c-1.9,1.9-5.3,3.4-9.5,3.4c-7,0-11.5-4.2-11.5-9.3V524.8z M229.5,516.1h18.1
		v4.1h-12.5v2.9h12.5v3.7h-12.5v2.7h12.5v4.3h-18.1V516.1z M155.6,516.1h11.9c5.1,0,7.6,2.2,7.6,5v0.1c0,1.8-1.3,3.5-4.3,4.1
		c3.3,0.3,4.3,2,4.3,4.1l0,1.5c0,1.2,0.2,2.1,1,2.9v0.1H171c-1,0-1.5-1.2-1.6-2.8l-0.1-1.9c-0.1-1.4-0.6-2.2-3-2.2h-5.1v6.8h-5.6
		V516.1z"/>
	<path d="M169.4,522.2v-0.2c0-1.2-0.9-2.1-3.4-2.1h-4.8v4.4h4.9C168.5,524.4,169.4,523.5,169.4,522.2z"/>
	<polygon points="151.9,469.9 169.7,469.9 169.7,492.7 192.6,492.7 192.6,428.6 169.7,428.6 169.7,453.6 151.9,453.6 151.9,428.6 
		129,428.6 129,492.7 151.9,492.7 	"/>
	<polygon points="258.5,474.9 226.7,474.9 226.7,466.3 258.5,466.3 258.5,453.6 226.7,453.6 226.7,445.1 258.5,445.1 258.5,428.6 
		203.8,428.6 203.8,492.7 258.5,492.7 	"/>
	<path d="M289,428.6l-22.4,64.1h20.3l3.2-10h18.4l2.8,10h24.1l-22.5-64.1H289z M294.3,469.4l5.7-18.6l4.8,18.6H294.3z"/>
	<polygon points="370.4,492.7 395,428.6 373.8,428.6 361.2,466.4 348.9,428.6 324.4,428.6 348.4,492.7 	"/>
	<polygon points="446.2,492.7 446.2,466.9 470.4,428.6 447.1,428.6 435.9,450.7 424.2,428.6 399.7,428.6 423.2,466.9 423.2,492.7 	
		"/>
	<path d="M500.2,441.9c6,0,12.5,2.9,18.2,7.5l12.1-10.4c-7-6.8-16.9-12-30-12c-17.8,0-29.1,9.7-29.1,20.8
		c0,21.9,36.9,18.2,36.9,26.7c0,2.7-1.8,4.8-7.5,4.8c-6.7,0-15.9-3.6-22.9-9.2l-10.7,12.3c8.7,6.9,19.3,11.8,33.1,11.8
		c17.2,0,30-9.4,30-21.5c0-20.8-37.4-18-37.4-26.6C492.9,443.7,495.4,441.9,500.2,441.9z"/>
	<polygon points="593.7,445.1 593.7,428.6 539,428.6 539,492.7 593.7,492.7 593.7,474.9 561.9,474.9 561.9,466.3 593.7,466.3 
		593.7,453.6 561.9,453.6 561.9,445.1 	"/>
	<polygon points="602.3,428.6 602.3,445.9 621.3,445.9 621.3,492.7 644.2,492.7 644.2,445.9 663.2,445.9 663.2,428.6 	"/>
</g>
</svg>
